<?xml version="1.0" encoding="UTF-8"?><svg id="Layer_2" xmlns="http://www.w3.org/2000/svg" viewBox="0 0 783.4 202.24"><defs><style>.cls-1,.cls-2{fill:#224edf;}.cls-2{font-family:ReadexPro-Medium, 'Readex Pro';font-size:109.77px;}</style></defs><g id="Layer_1-2"><g><text class="cls-2" transform="translate(180.77 145.82)"><tspan x="0" y="0">SEMSARI</tspan></text><path class="cls-1" d="M134.04,48.06c-3.03-2.04-6.85-2.46-10.24-1.1l-27.54,11.01V31.23c0-4.94-3.32-9.3-8.09-10.6L13.86,.39c-3.32-.89-6.81-.22-9.55,1.88C1.57,4.37,0,7.54,0,10.99V122.01c0,6.07,4.92,10.99,10.98,10.99h31.61v29.21c0,6.05,4.92,10.98,10.99,10.98H127.88c6.05,0,10.98-4.92,10.98-10.98V57.15c0-3.65-1.8-7.04-4.81-9.1ZM15.68,117.32V17.13l64.9,17.69v29.42l-31.1,12.44c-4.19,1.68-6.9,5.68-6.9,10.19v30.45H15.68Zm64.9-36.19v36.19h-22.31v-27.27l22.31-8.92Zm42.59,76.38H58.27v-24.51h27.02c6.05,0,10.98-4.92,10.98-10.99v-47.15l26.91-10.76v93.41Z"/></g></g></svg>